<svg xmlns="http://www.w3.org/2000/svg" width="50" height="50" fill="none"><path fill="url(#a)" d="M0 0h50v50H0V0Z"/><path fill="url(#b)" d="M11.48 23.833v-1.96c0-1.135.187-2.076.56-2.823a4.789 4.789 0 0 1 1.61-1.867c.716-.497 1.587-.902 2.613-1.213l1.564-.49c.575-.187 1.057-.412 1.446-.677.39-.28.685-.614.887-1.003.218-.389.327-.832.327-1.33v-.093c0-.778-.265-1.393-.794-1.844-.529-.466-1.252-.7-2.17-.7-.902 0-1.633.25-2.193.747-.544.482-.817 1.182-.817 2.1v.42h-2.986v-.373c0-1.183.264-2.186.793-3.01a5.163 5.163 0 0 1 2.147-1.89c.917-.436 1.936-.654 3.056-.654s2.131.218 3.034.654c.902.42 1.61 1.019 2.123 1.796.529.763.793 1.665.793 2.707v.233c0 1.043-.217 1.93-.653 2.66a5.224 5.224 0 0 1-1.727 1.774 11.14 11.14 0 0 1-2.496 1.12l-1.494.466c-.669.203-1.19.428-1.563.677-.373.233-.638.498-.793.793-.14.28-.21.623-.21 1.027v.093h8.796v2.66H11.48Z"/><path fill="url(#c)" d="M31.914 24.16c-1.929 0-3.477-.529-4.643-1.587-1.167-1.073-1.75-2.69-1.75-4.853v-4.107c0-2.1.583-3.694 1.75-4.783 1.166-1.104 2.714-1.657 4.643-1.657 1.945 0 3.492.553 4.643 1.657 1.167 1.089 1.75 2.683 1.75 4.783v4.107c0 2.162-.583 3.78-1.75 4.853-1.15 1.058-2.698 1.587-4.643 1.587Zm0-2.66c1.167 0 2.022-.319 2.567-.957.56-.637.84-1.547.84-2.73v-4.34c0-1.197-.311-2.1-.933-2.706-.607-.623-1.432-.934-2.474-.934-1.073 0-1.913.32-2.52.957-.59.638-.886 1.532-.886 2.683v4.34c0 1.23.28 2.155.84 2.777.575.607 1.43.91 2.566.91Z"/><path fill="url(#d)" d="M11.48 42.167v-1.96c0-1.136.187-2.077.56-2.824a4.788 4.788 0 0 1 1.61-1.866c.716-.498 1.587-.903 2.613-1.214l1.564-.49c.575-.186 1.057-.412 1.446-.676.39-.28.685-.615.887-1.004.218-.389.327-.832.327-1.33v-.093c0-.778-.265-1.392-.794-1.843-.529-.467-1.252-.7-2.17-.7-.902 0-1.633.249-2.193.746-.544.483-.817 1.183-.817 2.1v.42h-2.986v-.373c0-1.182.264-2.186.793-3.01a5.164 5.164 0 0 1 2.147-1.89c.917-.436 1.936-.653 3.056-.653s2.131.217 3.034.653c.902.42 1.61 1.019 2.123 1.797.529.762.793 1.664.793 2.706v.234c0 1.042-.217 1.929-.653 2.66a5.224 5.224 0 0 1-1.727 1.773 11.14 11.14 0 0 1-2.496 1.12l-1.494.467c-.669.202-1.19.427-1.563.676-.373.234-.638.498-.793.794-.14.28-.21.622-.21 1.026v.094h8.796v2.66H11.48Z"/><path fill="url(#e)" d="M32.6 42.167v-3.314h-8.027V35.4l5.647-9.567h5.367v10.36h2.706v2.66h-2.706v3.314H32.6Zm-5.18-5.974h5.18v-8.446h-.42l-4.76 8.073v.373Z"/><path fill="#374151" d="M24.931 36.002c-.049.198-.093.372-.064.577.086.605.096 1.171.03 1.698-.037.304-.362.806-.7.887-.4.096-.847.114-1.106-.285-.205-.316-.446-.583-.604-.935a4.589 4.589 0 0 0-.321-.596 2.141 2.141 0 0 1-.31-.946c-.025-.24.028-.503.158-.79.242-.532.557-.97.944-1.317.216-.192.495-.294.648-.548a.506.506 0 0 0-.046-.547c-.182-.215-.401-.28-.657-.193-.304.101-.62.244-.947.427-.964.54-2.529.098-2.265-1.282.041-.216.163-.452.366-.708.347-.437.59-.781 1.195-.755.867.04 1.682.139 2.537-.08.41-.106 1.074-.443 1.027-.945-.067-.717-2.229-.524-2.676-.52-.655.006-1.309-.274-1.875-.618-.465-.284-.952-.451-1.45-.65-.145-.057-.4-.195-.509-.306a9.358 9.358 0 0 0-2.095-1.603 8.39 8.39 0 0 1-.633-.389c-.284-.198-.567-.371-.81-.619a6.713 6.713 0 0 1-1.401-2.092 2.352 2.352 0 0 1-.194-.766c-.042-.653.13-1.278.406-1.946l.417-1c.09-.216.19-.265.336-.418a.562.562 0 0 1 .176-.124c.658-.291 1.153-.667 1.485-1.128.204-.283.39-.625.56-1.026.248-.594.6-.996 1.083-1.392.378-.308.711-.617 1.001-.924.207-.22.328-.517.478-.786.494-.9.965-1.658 1.685-2.363.23-.226.502-.402.815-.53.737-.3 1.504-.452 2.267-.614a8.314 8.314 0 0 1 2.178-.172c.544.029 1.11.152 1.696.368.793.29 1.573.7 2.207 1.258.198.176.392.357.581.544.072.07.146.147.22.23.349.383.743.74 1.183 1.071.284.214.442.495.666.763.084.1.152.207.205.322.244.529.488 1.077.732 1.645.2.464.43.878.692 1.242.435.604.878 1.175 1.329 1.71.119.142.218.295.299.46.133.277.285.528.39.822l.432 1.186c.078.212.165.565.136.832a5.583 5.583 0 0 1-.647 2.12.92.92 0 0 1-.27.309c-.472.342-.887.711-1.4 1.04-.649.415-1.295.835-1.939 1.26-.817.54-1.632 1.038-2.6 1.243-.633.134-2.11.462-2.17 1.307-.011.16.05.33.184.51.167.23.348.27.616.239.29-.032.578-.063.866-.092.253-.025.501-.077.745-.155.303-.097.667-.136 1.092-.118.546.024 1.096.416 1.358.848.137.227.194.525.17.893-.051.814-.869 1.481-1.648 1.52-.718.035-1.34-.006-1.868-.122a1.085 1.085 0 0 0-.851.157.661.661 0 0 0-.273.36 2.235 2.235 0 0 0 .221 1.957c.256.42.85.968.958 1.52.174.873.261 1.693.262 2.457 0 .45-.285.763-.715.857-.557.122-1.046.035-1.465-.261-.286-.2-.637-.756-.902-1.114-.399-.539-.537-1.176-.414-1.911.09-.537-.266-1.188-.892-1.196a.321.321 0 0 0-.315.243Zm4.608-18.546c.475.358 1 .399 1.576.122.486-.235.427-.922.279-1.372-.502-1.522-1.347-2.888-2.765-3.715a2.037 2.037 0 0 0-1.302-.277c-.443.056-.616.49-.515.876.118.444.149.94.094 1.488-.067.654.15 1.417.754 1.725.65.333 1.298.714 1.88 1.153Zm-8.158-4.372c-.366.556-.682 1.173-.99 1.78-.25.496-.576.888-1.038 1.194-.208.139-.39.322-.546.55-.303.444-.513 1.408.366 1.422.46.007.912.03 1.357.07.566.052 1.009.032 1.33-.06.502-.142 1.193-.515 1.38-1.034.192-.533.38-.924.837-1.323.613-.533 1.15-1.3.775-2.148-.108-.243-.315-.432-.62-.566-.442-.193-1.077-.497-1.52-.432-.483.07-1.03.087-1.331.547Zm.196 10.846c.623.425.928 1.001 1.121 1.715.067.245.233.458.434.604.282.204.56.422.834.653.249.21.607.24.916.22.435-.029.891-.053 1.368-.073.4-.016.868-.337 1.118-.597.194-.2.38-.453.561-.757.244-.41.654-.91 1.229-1.5.836-.857 1.83-.531 2.875-.8.699-.182 1.384-.665 1.973-1.07.13-.088.25-.182.277-.35.09-.566.14-1.196-.33-1.562a2.956 2.956 0 0 0-.621-.37c-.404-.18-.895-.067-1.322-.03-.758.065-1.577-.035-2.287-.384a17.381 17.381 0 0 1-1.718-.966 1.466 1.466 0 0 0-.545-.21 10.495 10.495 0 0 0-2.774-.114 2.02 2.02 0 0 0-1.078.429 5.175 5.175 0 0 0-.723.706c-.472.553-1.503 1.096-2.228 1.057a5.322 5.322 0 0 1-1.195-.21c-.5-.145-1.016-.28-1.55-.405-.405-.095-.735.088-1.082.27-.406.214-.564.765-.284 1.137.262.35 1.152.647 1.576.659.53.014.961.264 1.407.535.245.149.474.301.688.457.432.312.885.63 1.36.956Z"/><defs><linearGradient id="a" x1="0" x2="50" y1="0" y2="50" gradientUnits="userSpaceOnUse"><stop stop-color="#BAE6FD"/><stop offset="1" stop-color="#F0F9FF"/></linearGradient><linearGradient id="b" x1="50" x2="35.812" y1="0" y2="58.662" gradientUnits="userSpaceOnUse"><stop stop-color="#fff" stop-opacity=".3"/><stop offset="1" stop-color="#fff"/></linearGradient><linearGradient id="c" x1="50" x2="35.812" y1="0" y2="58.662" gradientUnits="userSpaceOnUse"><stop stop-color="#fff" stop-opacity=".3"/><stop offset="1" stop-color="#fff"/></linearGradient><linearGradient id="d" x1="50" x2="35.812" y1="0" y2="58.662" gradientUnits="userSpaceOnUse"><stop stop-color="#fff" stop-opacity=".3"/><stop offset="1" stop-color="#fff"/></linearGradient><linearGradient id="e" x1="50" x2="35.812" y1="0" y2="58.662" gradientUnits="userSpaceOnUse"><stop stop-color="#fff" stop-opacity=".3"/><stop offset="1" stop-color="#fff"/></linearGradient></defs></svg>