<svg xmlns="http://www.w3.org/2000/svg" width="1726" height="1726" fill="none"><path fill="#000" d="M858.998 1484.13c-2.762 11.16-5.261 20.93-3.617 32.49 4.823 34.11 5.392 66.02 1.71 95.73-2.104 17.1-20.451 45.42-39.521 49.97-22.489 5.42-47.674 6.41-62.272-16.04-11.574-17.82-25.12-32.88-34.063-52.75-5.129-11.49-11.157-22.67-18.083-33.54-9.601-15.14-15.432-32.92-17.492-53.34-1.359-13.52 1.622-28.35 8.943-44.5 13.634-29.97 31.367-54.71 53.198-74.21 12.166-10.83 27.882-16.57 36.496-30.9 5.261-8.65 4.34-22.71-2.565-30.83-10.302-12.1-22.642-15.73-37.021-10.89-17.141 5.72-34.94 13.75-53.396 24.1-54.316 30.37-142.497 5.48-127.636-72.3 2.324-12.14 9.206-25.44 20.648-39.87 19.53-24.63 33.274-44.04 67.336-42.52 48.858 2.24 94.757 7.79 142.958-4.56 23.147-5.94 60.497-24.95 57.867-53.21-3.748-40.4-125.598-29.58-150.783-29.31-36.956.33-73.78-15.45-105.673-34.86-26.237-15.98-53.658-25.42-81.671-36.58-8.22-3.23-22.621-11.02-28.737-17.29-35.158-35.743-74.503-65.849-118.035-90.32-14.511-8.187-26.413-15.493-35.707-21.919-15.979-11.158-31.958-20.929-45.636-34.859-34.15-34.903-60.475-74.207-78.975-117.913-6.4-15.097-10.039-29.489-10.916-43.178-2.367-36.773 7.299-72.028 22.884-109.66 7.716-18.618 15.541-37.39 23.476-56.316 5.129-12.214 10.718-14.987 18.938-23.569 2.893-2.993 6.203-5.326 9.929-6.999 37.088-16.417 64.991-37.609 83.71-63.578 11.486-15.933 21.985-35.211 31.498-57.834 14.007-33.472 33.866-56.117 61.089-78.432 21.262-17.386 40.069-34.749 56.421-52.091 11.639-12.346 18.478-29.115 26.895-44.3 27.881-50.704 54.381-93.419 94.954-133.164 13.02-12.72 28.342-22.667 45.965-29.841 41.493-16.901 84.762-25.484 127.768-34.595C840.301 1.725 881.202-1.51 922.586.647c30.643 1.629 62.514 8.539 95.614 20.73 44.65 16.374 88.64 39.415 124.35 70.907a832.636 832.636 0 0 1 32.74 30.633c4.08 4.006 8.22 8.319 12.43 12.941 19.64 21.61 41.85 41.747 66.61 60.409 16.05 12.015 24.93 27.86 37.55 42.979 4.74 5.634 8.59 11.686 11.58 18.156 13.72 29.797 27.46 60.695 41.23 92.693 11.26 26.144 24.26 49.471 38.99 69.982 24.51 34.067 49.47 66.197 74.9 96.39a123.675 123.675 0 0 1 16.83 25.946c7.5 15.581 16.11 29.71 22.03 46.281a8987.226 8987.226 0 0 0 24.33 66.813c4.41 11.95 9.27 31.888 7.63 46.941-4.73 44.102-16.88 83.912-36.43 119.431-3.95 7.175-9.01 12.984-15.19 17.43-26.63 19.278-50.04 40.074-78.98 58.56a10156.96 10156.96 0 0 0-109.22 71.039c-46.03 30.435-91.99 58.492-146.51 70.052-35.7 7.59-118.95 26.07-122.31 73.67-.61 8.98 2.85 18.58 10.39 28.79 9.41 12.87 19.6 15.12 34.72 13.4 16.31-1.8 32.57-3.52 48.79-5.15 14.25-1.45 28.24-4.38 41.96-8.78 17.1-5.46 37.61-7.66 61.55-6.6 30.77 1.32 61.74 23.44 76.54 47.8 7.72 12.76 10.92 29.53 9.6 50.31-2.89 45.88-48.99 83.45-92.92 85.63-40.41 1.98-75.51-.31-105.27-6.87-16.97-3.74-32.95-.79-47.94 8.85-7.32 4.71-12.45 11.46-15.39 20.26-12.93 38.6-8.77 75.38 12.5 110.33 14.4 23.7 47.87 54.53 53.98 85.62 9.78 49.26 14.69 95.43 14.73 138.52 0 25.35-16.04 42.98-40.31 48.26-31.39 6.86-58.89 1.96-82.52-14.73-16.114-11.29-35.907-42.58-50.834-62.78-22.489-30.33-30.271-66.22-23.344-107.68 5.063-30.24-14.993-66.95-50.239-67.41a18.12 18.12 0 0 0-11.258 3.79 18.124 18.124 0 0 0-6.497 9.94ZM1118.68 438.959c26.74 20.202 56.33 22.491 88.77 6.866 27.42-13.204 24.07-51.958 15.72-77.31-28.28-85.761-75.89-162.741-155.79-209.352-23.19-13.512-47.65-18.706-73.381-15.581-24.988 3.103-34.72 27.597-28.999 49.317 6.619 25.044 8.373 52.993 5.26 83.847-3.748 36.905 8.483 79.885 42.48 97.248 36.63 18.75 73.19 40.207 105.94 64.965Zm-459.783-246.39c-20.583 31.36-38.403 66.087-55.763 100.352-14.138 27.927-32.485 50.044-58.525 67.275-11.705 7.791-21.963 18.134-30.774 31.03-17.032 24.956-28.868 79.291 20.648 80.083 25.908.396 51.4 1.717 76.476 3.961 31.871 2.905 56.837 1.783 74.898-3.367 28.342-8.054 67.271-29.049 77.792-58.296 10.85-30.04 21.437-52.091 47.214-74.538 34.523-30.039 64.772-73.283 43.663-121.082-6.093-13.688-17.732-24.317-34.917-31.888-24.922-10.893-60.695-27.992-85.683-24.361-27.223 3.961-58.064 4.951-75.029 30.831Zm11.047 611.221c35.115 23.965 52.343 56.447 63.193 96.654 3.748 13.798 13.152 25.814 24.462 34.067 15.914 11.487 31.586 23.745 47.017 36.773 14.007 11.818 34.194 13.535 51.62 12.412 24.506-1.628 50.195-2.993 77.068-4.093 22.555-.924 48.924-19.014 62.997-33.671 10.919-11.311 21.459-25.528 31.629-42.649 13.77-23.107 36.85-51.276 69.24-84.507 47.15-48.327 103.11-29.973 162.03-45.158 39.39-10.233 77.99-37.434 111.2-60.211 7.3-5.017 14.07-10.299 15.58-19.74 5.13-31.954 7.96-67.407-18.61-88.072-10.52-8.186-22.18-15.118-34.98-20.796-22.75-10.167-50.44-3.829-74.5-1.783-42.68 3.697-88.84-1.914-128.89-21.589a979.273 979.273 0 0 1-96.8-54.467c-9.07-5.854-19.31-9.793-30.7-11.817-50.068-8.979-102.171-11.114-156.311-6.404-22.029 1.848-43.466 10.431-60.761 24.163-14.291 11.356-27.881 24.626-40.769 39.811-26.567 31.161-84.697 61.729-125.532 59.55-21.218-1.1-43.664-5.061-67.336-11.883-28.189-8.143-57.298-15.735-87.327-22.778-22.884-5.347-41.493 4.952-61.023 15.185-22.884 12.082-31.761 43.112-15.98 64.106 14.73 19.741 64.904 36.444 88.774 37.104 29.854.792 54.184 14.921 79.304 30.172 13.809 8.406 26.741 16.989 38.797 25.748 24.33 17.605 49.866 35.563 76.608 53.873Z"/></svg>